<?xml version="1.0" encoding="iso-8859-1"?>
<!-- Uploaded to: SVG Repo, www.svgrepo.com, Generator: SVG Repo Mixer Tools -->
<svg fill="#000000" height="800px" width="800px" version="1.1" id="Layer_1" xmlns="http://www.w3.org/2000/svg" xmlns:xlink="http://www.w3.org/1999/xlink" 
	 viewBox="0 0 512 512" xml:space="preserve">
<g>
	<g>
		<g>
			<path d="M422.4,68.267h-21.333l-46.089-61.44C351.778,2.551,346.675,0,341.333,0H170.667c-5.342,0-10.453,2.551-13.653,6.827
				l-46.08,61.44H89.6c-9.412,0-17.067,7.654-17.067,17.067v34.133c0,9.412,7.654,17.067,17.067,17.067h9.276l4.847,53.376
				c-1.741,0.93-3.379,2.091-4.745,3.575c-3.345,3.661-5.009,8.593-4.565,13.534l20.062,220.638
				c0.666,7.287,5.623,13.09,12.245,15.181l4.873,53.641c0.802,8.849,8.115,15.522,16.998,15.522h214.818
				c8.883,0,16.188-6.673,16.998-15.522l4.872-53.641c6.613-2.091,11.571-7.893,12.245-15.181l20.053-220.638
				c0.444-4.941-1.212-9.873-4.565-13.534c-1.365-1.485-2.995-2.645-4.745-3.575l4.855-53.376h9.276
				c9.404,0,17.067-7.654,17.067-17.067V85.333C439.467,75.921,431.804,68.267,422.4,68.267z M170.667,17.067h170.667l38.4,51.2
				H132.267L170.667,17.067z M363.409,494.933H148.591l-4.659-51.2H368.06L363.409,494.933z M371.2,332.8
				c0,4.71-3.823,8.533-8.533,8.533H294.4c-4.719,0-8.533-3.823-8.533-8.533V256c0-2.261,0.896-4.437,2.5-6.033L320,218.334V204.8
				h17.067v13.534l31.633,31.633c1.596,1.596,2.5,3.772,2.5,6.033V332.8z M391.33,187.733h-54.263H320H120.661l-4.659-51.2h279.987
				L391.33,187.733z"/>
			<polygon points="302.93,259.534 302.93,324.268 354.13,324.268 354.13,259.534 328.53,233.934 			"/>
		</g>
	</g>
</g>
</svg>